<svg width="204" height="204" viewBox="0 0 204 204" fill="none" xmlns="http://www.w3.org/2000/svg">
<circle cx="102" cy="102" r="102" fill="#0F1C3C"/>
<path d="M90.5808 74.9853L83.1958 100.24H76.3122L71.7079 82.5982L67.1037 100.24H60.1745L52.7439 74.9853H59.2172L63.6847 94.2228L68.5169 74.9853H75.2637L80.0047 94.1772L84.4722 74.9853H90.5808ZM117.511 87.0657C117.511 87.9774 117.45 88.798 117.329 89.5274H98.8661C99.0181 91.3508 99.6563 92.7792 100.781 93.8125C101.905 94.8458 103.288 95.3625 104.929 95.3625C107.3 95.3625 108.986 94.3444 109.989 92.3082H116.873C116.143 94.7395 114.745 96.7453 112.679 98.3256C110.612 99.8755 108.075 100.651 105.066 100.651C102.635 100.651 100.446 100.119 98.5014 99.055C96.5868 97.9609 95.0825 96.4262 93.9884 94.4507C92.9247 92.4753 92.3928 90.196 92.3928 87.6127C92.3928 84.9991 92.9247 82.7046 93.9884 80.7292C95.0521 78.7538 96.5412 77.2342 98.4559 76.1705C100.371 75.1068 102.574 74.575 105.066 74.575C107.467 74.575 109.609 75.0916 111.494 76.1249C113.408 77.1582 114.882 78.6322 115.916 80.5468C116.979 82.4311 117.511 84.604 117.511 87.0657ZM110.901 85.2422C110.871 83.6011 110.278 82.2943 109.123 81.3218C107.968 80.3189 106.555 79.8174 104.884 79.8174C103.303 79.8174 101.966 80.3037 100.872 81.2762C99.8083 82.2183 99.1549 83.5403 98.9117 85.2422H110.901ZM128.552 78.6778C129.372 77.4621 130.497 76.4744 131.925 75.7146C133.384 74.9549 135.04 74.575 136.894 74.575C139.052 74.575 140.997 75.1068 142.729 76.1705C144.492 77.2342 145.874 78.7538 146.877 80.7292C147.911 82.6742 148.427 84.9383 148.427 87.5216C148.427 90.1048 147.911 92.3993 146.877 94.4052C145.874 96.3806 144.492 97.9153 142.729 99.0094C140.997 100.103 139.052 100.651 136.894 100.651C135.01 100.651 133.353 100.286 131.925 99.5564C130.527 98.7967 129.403 97.8241 128.552 96.6389V100.24H122.169V66.5062H128.552V78.6778ZM141.908 87.5216C141.908 86.002 141.589 84.6952 140.951 83.6011C140.343 82.4767 139.523 81.6257 138.489 81.0483C137.487 80.4708 136.392 80.1821 135.207 80.1821C134.052 80.1821 132.958 80.486 131.925 81.0939C130.922 81.6713 130.102 82.5222 129.463 83.6467C128.855 84.7712 128.552 86.0932 128.552 87.6127C128.552 89.1323 128.855 90.4543 129.463 91.5788C130.102 92.7033 130.922 93.5694 131.925 94.1772C132.958 94.7546 134.052 95.0434 135.207 95.0434C136.392 95.0434 137.487 94.7395 138.489 94.1316C139.523 93.5238 140.343 92.6577 140.951 91.5332C141.589 90.4087 141.908 89.0715 141.908 87.5216ZM65.4626 108.575C67.3468 108.575 69.0031 108.955 70.4315 109.715C71.8599 110.444 72.9844 111.401 73.8049 112.587V108.985H80.2326V134.423C80.2326 136.763 79.7616 138.844 78.8194 140.668C77.8773 142.522 76.4641 143.981 74.5799 145.044C72.6956 146.138 70.4163 146.685 67.7419 146.685C64.1558 146.685 61.2078 145.85 58.8981 144.178C56.6188 142.507 55.3272 140.227 55.0232 137.34H61.3598C61.6941 138.495 62.4083 139.407 63.5023 140.075C64.6268 140.774 65.9792 141.124 67.5596 141.124C69.4134 141.124 70.9178 140.562 72.0726 139.437C73.2275 138.343 73.8049 136.672 73.8049 134.423V130.502C72.9844 131.687 71.8447 132.675 70.3859 133.465C68.9575 134.255 67.3164 134.651 65.4626 134.651C63.3352 134.651 61.3902 134.103 59.6275 133.009C57.8648 131.915 56.4668 130.381 55.4335 128.405C54.4306 126.399 53.9292 124.105 53.9292 121.522C53.9292 118.969 54.4306 116.705 55.4335 114.729C56.4668 112.754 57.8496 111.234 59.5819 110.171C61.3446 109.107 63.3048 108.575 65.4626 108.575ZM73.8049 121.613C73.8049 120.063 73.501 118.741 72.8932 117.647C72.2854 116.522 71.4648 115.671 70.4315 115.094C69.3982 114.486 68.2889 114.182 67.1037 114.182C65.9184 114.182 64.8244 114.471 63.8215 115.048C62.8185 115.626 61.998 116.477 61.3598 117.601C60.752 118.695 60.448 120.002 60.448 121.522C60.448 123.041 60.752 124.378 61.3598 125.533C61.998 126.658 62.8185 127.524 63.8215 128.132C64.8547 128.739 65.9488 129.043 67.1037 129.043C68.2889 129.043 69.3982 128.755 70.4315 128.177C71.4648 127.569 72.2854 126.718 72.8932 125.624C73.501 124.5 73.8049 123.163 73.8049 121.613ZM89.7025 105.977C88.5781 105.977 87.6359 105.627 86.8762 104.928C86.1468 104.199 85.7821 103.302 85.7821 102.238C85.7821 101.175 86.1468 100.293 86.8762 99.5944C87.6359 98.865 88.5781 98.5003 89.7025 98.5003C90.827 98.5003 91.7539 98.865 92.4833 99.5944C93.2431 100.293 93.623 101.175 93.623 102.238C93.623 103.302 93.2431 104.199 92.4833 104.928C91.7539 105.627 90.827 105.977 89.7025 105.977ZM92.848 108.985V134.24H86.4659V108.985H92.848ZM108.818 134.651C106.751 134.651 104.897 134.286 103.256 133.556C101.615 132.797 100.308 131.779 99.3359 130.502C98.3938 129.226 97.8771 127.813 97.786 126.263H104.214C104.335 127.235 104.806 128.04 105.627 128.679C106.478 129.317 107.526 129.636 108.772 129.636C109.988 129.636 110.93 129.393 111.599 128.907C112.298 128.42 112.647 127.797 112.647 127.038C112.647 126.217 112.222 125.609 111.371 125.214C110.55 124.789 109.228 124.333 107.405 123.846C105.52 123.391 103.971 122.92 102.755 122.433C101.57 121.947 100.536 121.202 99.655 120.2C98.8041 119.197 98.3786 117.844 98.3786 116.142C98.3786 114.744 98.7737 113.468 99.5638 112.313C100.384 111.158 101.539 110.246 103.028 109.578C104.548 108.909 106.326 108.575 108.362 108.575C111.371 108.575 113.772 109.335 115.565 110.854C117.358 112.343 118.346 114.364 118.528 116.917H112.419C112.328 115.914 111.903 115.124 111.143 114.547C110.413 113.939 109.426 113.635 108.18 113.635C107.025 113.635 106.128 113.848 105.49 114.273C104.882 114.699 104.578 115.291 104.578 116.051C104.578 116.902 105.004 117.556 105.855 118.011C106.706 118.437 108.028 118.878 109.821 119.333C111.644 119.789 113.149 120.26 114.334 120.747C115.519 121.233 116.537 121.993 117.388 123.026C118.27 124.029 118.725 125.366 118.756 127.038C118.756 128.496 118.346 129.803 117.525 130.958C116.735 132.113 115.58 133.025 114.06 133.693C112.571 134.331 110.824 134.651 108.818 134.651Z" fill="white"/>
<rect x="104.624" y="47.8657" width="64.7675" height="16.0815" rx="7.72016" transform="rotate(11.4574 104.624 47.8657)" fill="#BFFF38"/>
<path d="M126.534 57.0702L123.091 63.6135L121.195 63.2292L120.912 58.1134L118.659 62.7152L116.75 62.3284L116.114 54.9582L117.896 55.3195L118.053 60.8671L120.458 55.8386L122.316 56.2152L122.55 61.7655L124.852 56.7292L126.534 57.0702ZM138.571 59.5099L135.128 66.0531L133.232 65.6689L132.949 60.5531L130.696 65.1549L128.788 64.7681L128.151 57.3978L129.934 57.7592L130.09 63.3068L132.495 58.2783L134.353 58.6549L134.587 64.2052L136.889 59.1689L138.571 59.5099ZM150.609 61.9495L147.165 68.4928L145.269 68.1086L144.986 62.9927L142.733 67.5945L140.825 67.2078L140.188 59.8375L141.971 60.1988L142.127 65.7464L144.532 60.7179L146.39 61.0945L146.625 66.6449L148.926 61.6086L150.609 61.9495Z" fill="#0F1C3C"/>
<path d="M132.648 156.098C130.846 156.03 129.352 155.932 127.284 155.748C125.562 155.594 122.551 155.144 121.216 154.841C119.953 154.554 119.303 154.38 118.464 154.103C116.693 153.519 115.586 152.847 115.241 152.145L115.106 151.871V151.189V150.507L115.245 150.251C115.808 149.212 117.579 148.342 120.638 147.6C121.001 147.512 121.363 147.427 121.443 147.413C121.522 147.398 121.754 147.351 121.959 147.308C122.316 147.232 123.069 147.1 123.94 146.959C124.566 146.858 126.172 146.655 126.598 146.622L126.975 146.594V129.53V112.466H127.697H128.419V131.327V150.188L128.327 150.211C128.275 150.224 128.066 150.255 127.862 150.28C127.658 150.305 127.24 150.361 126.933 150.404C126.627 150.446 126.032 150.528 125.612 150.586C125.192 150.643 124.514 150.737 124.105 150.793C123.697 150.849 123.009 150.943 122.578 151.002C122.147 151.061 121.543 151.144 121.236 151.187C120.93 151.23 120.317 151.314 119.874 151.373C119.431 151.433 118.818 151.517 118.512 151.56C118.205 151.603 117.601 151.687 117.17 151.746C116.739 151.805 116.295 151.866 116.183 151.882L115.981 151.911L116.225 152.08C116.359 152.172 116.565 152.302 116.682 152.367L116.896 152.486L117.941 152.287C119.516 151.989 120.762 151.754 122.021 151.518C122.645 151.402 123.388 151.262 123.672 151.208C124.382 151.074 125.263 150.908 125.757 150.816C125.984 150.774 126.42 150.692 126.727 150.634C127.033 150.576 127.535 150.481 127.842 150.424C128.148 150.366 128.594 150.281 128.832 150.233L129.266 150.147L129.255 131.306L129.245 112.465H129.967H130.69V131.33V150.194L130.535 150.233C130.45 150.254 130.148 150.32 129.864 150.38C129.581 150.44 129.139 150.535 128.884 150.592C128.629 150.648 128.201 150.741 127.934 150.799C127.668 150.856 127.291 150.938 127.098 150.981C126.905 151.023 126.525 151.106 126.252 151.166C125.98 151.225 125.552 151.318 125.303 151.373C125.053 151.428 124.412 151.567 123.878 151.683C122.332 152.017 122.151 152.056 121.649 152.165C121.388 152.222 120.961 152.315 120.7 152.372C120.439 152.428 120.067 152.509 119.874 152.551C119.539 152.625 118.88 152.769 118.305 152.893L118.037 152.951L118.486 153.092L118.934 153.234L119.621 153.063C120.439 152.859 122.777 152.289 124.704 151.824C125.033 151.744 125.637 151.597 126.046 151.497C126.721 151.332 127.832 151.061 129.452 150.667C129.781 150.587 130.382 150.44 130.787 150.339C131.192 150.238 131.531 150.156 131.54 150.156C131.549 150.156 131.557 141.676 131.557 131.311V112.465H132.259H132.96V131.333C132.96 146.39 132.95 150.203 132.909 150.217C132.881 150.226 132.606 150.301 132.3 150.383C131.993 150.466 131.659 150.559 131.557 150.59C131.455 150.62 131.12 150.713 130.814 150.796C130.507 150.879 130.173 150.971 130.071 151.002C129.969 151.033 129.708 151.105 129.493 151.164C128.733 151.369 126.325 152.032 126.025 152.119C125.923 152.148 125.626 152.23 125.365 152.302C125.103 152.373 124.727 152.477 124.529 152.532C124.102 152.651 123.555 152.802 123.011 152.949C122.796 153.008 122.536 153.08 122.434 153.11C122.331 153.139 121.997 153.232 121.69 153.315C120.869 153.538 120.499 153.658 120.617 153.662C120.674 153.664 120.822 153.694 120.947 153.727C121.552 153.891 121.628 153.889 122.275 153.689C122.601 153.589 122.932 153.489 123.011 153.467C123.091 153.445 123.555 153.305 124.044 153.157C124.532 153.009 124.996 152.87 125.076 152.847C125.155 152.824 125.527 152.713 125.901 152.599C126.276 152.485 126.842 152.314 127.16 152.22C127.478 152.125 127.97 151.977 128.254 151.89C128.538 151.804 129.095 151.636 129.493 151.517C129.89 151.398 130.475 151.222 130.793 151.126C131.111 151.029 131.696 150.852 132.094 150.733C132.491 150.614 133.081 150.434 133.404 150.334L133.992 150.152L134.003 130.762L134.013 111.372H134.447H134.88V130.79V150.209L134.364 150.388C134.08 150.486 133.774 150.594 133.683 150.627C133.592 150.66 132.292 151.123 130.793 151.656C129.295 152.19 127.062 152.985 125.831 153.423L123.594 154.221L124.077 154.291C126.278 154.613 128.679 154.841 131.412 154.989C132.691 155.058 137.381 155.084 139.029 155.032C140.656 154.98 143.03 154.831 144.392 154.695C145.911 154.545 148.389 154.219 148.453 154.161C148.472 154.145 148.286 154.062 148.041 153.976C147.796 153.89 147.344 153.729 147.038 153.617C146.343 153.365 146.083 153.271 145.407 153.029C145.112 152.923 144.75 152.792 144.602 152.737C144.454 152.683 144.046 152.536 143.694 152.411C143.342 152.287 142.868 152.116 142.641 152.033C142.414 151.95 142.182 151.867 142.125 151.848C142.068 151.83 141.836 151.747 141.609 151.664C141.382 151.581 141.122 151.488 141.031 151.458C140.94 151.428 140.68 151.334 140.453 151.25C140.226 151.166 139.994 151.082 139.937 151.064C139.88 151.045 139.648 150.962 139.421 150.879C139.194 150.796 138.962 150.713 138.905 150.694C138.848 150.675 138.616 150.591 138.389 150.507C138.162 150.424 137.869 150.318 137.739 150.273L137.501 150.19V130.113C137.501 117.053 137.516 110.032 137.542 110.023C137.564 110.015 137.778 110.015 138.017 110.022L138.451 110.035V130.094V150.153L139.06 150.344C139.395 150.448 139.817 150.579 139.999 150.635C140.181 150.691 140.729 150.859 141.217 151.008C141.705 151.158 142.142 151.29 142.187 151.301C142.232 151.312 142.53 151.401 142.847 151.499C143.165 151.597 143.62 151.736 143.859 151.808C144.097 151.88 144.525 152.01 144.808 152.096C145.092 152.183 145.519 152.313 145.758 152.385C145.996 152.457 146.451 152.596 146.769 152.694C147.087 152.791 147.821 153.014 148.4 153.19C148.979 153.365 149.676 153.578 149.948 153.662L150.443 153.815L150.953 153.701C151.234 153.639 151.469 153.582 151.477 153.574C151.493 153.558 151.486 153.556 149.927 153.129C148.53 152.746 148.127 152.635 147.905 152.57C147.802 152.54 147.329 152.41 146.852 152.281C146.375 152.151 145.836 152.003 145.655 151.951C145.473 151.899 145.148 151.809 144.932 151.751C144.563 151.651 143.667 151.405 142.786 151.162C142.57 151.103 142.31 151.03 142.208 151.001C142.105 150.971 141.808 150.889 141.547 150.818C141.286 150.746 140.914 150.644 140.721 150.591C140.528 150.538 140.185 150.444 139.958 150.384C139.731 150.323 139.485 150.255 139.411 150.232L139.277 150.191V129.799V109.408L139.679 109.42L140.082 109.431V129.792V150.153L140.866 150.338C141.297 150.44 142.059 150.618 142.558 150.733C143.058 150.849 143.829 151.027 144.272 151.13C144.714 151.233 145.318 151.372 145.613 151.44C145.909 151.507 146.261 151.59 146.398 151.623C146.534 151.656 146.896 151.739 147.203 151.808C147.509 151.876 147.909 151.968 148.09 152.013C148.272 152.057 148.634 152.141 148.895 152.199C149.156 152.257 149.519 152.34 149.7 152.384C150.056 152.47 150.435 152.558 151.847 152.881C152.346 152.995 152.826 153.105 152.912 153.125C153.04 153.155 153.14 153.139 153.459 153.037C153.674 152.968 153.849 152.9 153.849 152.885C153.849 152.871 153.677 152.826 153.467 152.786C153.257 152.746 152.872 152.667 152.611 152.61C152.35 152.554 151.959 152.472 151.744 152.428C151.528 152.384 151.175 152.31 150.959 152.265C150.744 152.22 150.121 152.089 149.576 151.976C149.032 151.862 148.316 151.712 147.987 151.642C147.658 151.573 147.258 151.489 147.1 151.456C146.941 151.424 146.541 151.34 146.212 151.271C145.883 151.201 145.483 151.118 145.324 151.085C145.165 151.053 144.766 150.969 144.437 150.899C144.108 150.829 143.708 150.746 143.549 150.713C143.39 150.681 142.944 150.588 142.558 150.506C142.172 150.424 141.717 150.331 141.547 150.297C141.377 150.264 141.205 150.227 141.165 150.214C141.097 150.193 141.093 149.258 141.093 131.329V112.466H141.815H142.538V131.307V150.149L142.748 150.194C142.864 150.219 143.222 150.286 143.543 150.342C143.864 150.398 144.332 150.482 144.581 150.528C144.831 150.574 145.24 150.647 145.489 150.691C145.739 150.735 146.306 150.838 146.749 150.921C147.191 151.003 147.665 151.088 147.801 151.11C147.938 151.131 148.235 151.184 148.462 151.227C148.689 151.271 149.135 151.353 149.453 151.411C149.77 151.468 150.449 151.592 150.959 151.684C151.47 151.777 152.093 151.889 152.342 151.933C152.868 152.025 153.444 152.13 154.345 152.297L154.984 152.416L155.17 152.322C155.363 152.225 155.841 151.886 155.817 151.863C155.803 151.849 155.084 151.746 153.828 151.581C153.374 151.521 152.659 151.427 152.239 151.371C151.401 151.26 150.655 151.162 149.442 151.002C147.063 150.69 145.88 150.533 145.077 150.424C144.827 150.39 144.39 150.334 144.107 150.3C143.823 150.266 143.539 150.227 143.477 150.214L143.363 150.191V131.328V112.465H144.086H144.808V129.533V146.6L145.046 146.626C147.192 146.857 150.195 147.376 151.537 147.746C152.319 147.962 152.561 148.033 153.023 148.182C154.924 148.797 156.191 149.559 156.56 150.31C156.674 150.542 156.677 150.567 156.677 151.21V151.871L156.542 152.145C156.197 152.847 155.089 153.519 153.319 154.103C152.48 154.38 151.83 154.554 150.567 154.841C149.231 155.144 146.221 155.594 144.499 155.748C142.371 155.937 141.041 156.023 138.988 156.101C137.786 156.146 133.884 156.145 132.648 156.098ZM117.191 151.012C117.633 150.969 118.144 150.923 118.326 150.909C118.658 150.884 119.687 150.792 121.35 150.64C121.844 150.595 122.489 150.539 122.784 150.516C123.08 150.493 123.59 150.448 123.92 150.415C124.249 150.382 124.676 150.344 124.869 150.33C125.062 150.315 125.589 150.268 126.041 150.224C126.492 150.18 126.887 150.144 126.918 150.144C126.962 150.144 126.975 150.055 126.975 149.745V149.346L121.974 149.375L116.973 149.403L116.679 149.598C116.081 149.995 115.696 150.484 115.624 150.938L115.592 151.144L115.989 151.117C116.207 151.102 116.748 151.054 117.191 151.012ZM156.152 150.918C156.104 150.494 155.675 149.936 155.118 149.572L154.859 149.416L149.834 149.375L144.808 149.346V149.745C144.808 150.098 144.817 150.144 144.881 150.144C144.92 150.144 145.241 150.172 145.593 150.206C145.945 150.24 146.493 150.287 146.811 150.31C147.129 150.333 147.797 150.388 148.297 150.433C148.796 150.477 149.79 150.561 150.505 150.619C151.221 150.677 152.224 150.761 152.735 150.806C153.246 150.85 153.933 150.907 154.262 150.931C154.591 150.956 155.093 151 155.377 151.03C155.661 151.06 155.956 151.086 156.032 151.089L156.172 151.094L156.152 150.918ZM126.975 148.968C126.975 148.92 126.921 148.906 126.737 148.906C126.607 148.906 126.128 148.877 125.674 148.843C125.22 148.808 124.533 148.762 124.147 148.741C123.761 148.719 122.888 148.663 122.206 148.617C121.525 148.571 120.601 148.51 120.152 148.481L119.335 148.43L118.903 148.571C118.665 148.649 118.475 148.718 118.482 148.724C118.488 148.731 119.059 148.755 119.751 148.779C120.443 148.803 121.752 148.851 122.661 148.887C124.631 148.963 126.118 149.015 126.613 149.023C126.91 149.028 126.975 149.018 126.975 148.968ZM146.291 148.988C147.526 148.945 151.323 148.806 152.652 148.755L153.375 148.727L152.908 148.579L152.442 148.43L151.629 148.482C151.181 148.51 150.248 148.571 149.556 148.617C148.863 148.664 147.972 148.72 147.574 148.743C147.177 148.766 146.49 148.812 146.047 148.845C145.604 148.879 145.144 148.906 145.025 148.906C144.86 148.906 144.808 148.921 144.808 148.968C144.808 148.971 144.808 148.975 144.808 148.978C144.808 148.981 144.808 148.983 144.808 148.986C144.808 148.989 144.808 148.991 144.808 148.994C144.809 148.995 144.809 148.996 144.81 148.998C144.824 149.038 144.963 149.034 146.08 148.995C146.147 148.993 146.217 148.99 146.291 148.988ZM126.975 148.636C126.975 148.559 126.961 148.555 126.5 148.5C126.295 148.476 125.72 148.399 125.22 148.329C124.721 148.26 124.163 148.184 123.982 148.161C123.8 148.138 123.401 148.084 123.094 148.04C121.644 147.832 121.644 147.832 121.401 147.891C121.131 147.957 121.169 147.975 121.711 148.034C122.145 148.082 122.703 148.151 123.734 148.285C124.074 148.33 124.734 148.414 125.199 148.473C125.665 148.532 126.222 148.605 126.438 148.635C126.966 148.708 126.975 148.708 126.975 148.636ZM145.428 148.618C145.956 148.554 147.353 148.376 148.028 148.287C148.358 148.243 148.739 148.196 148.875 148.181C149.011 148.167 149.37 148.119 149.672 148.076C149.974 148.033 150.299 147.996 150.394 147.995C150.544 147.993 150.555 147.987 150.471 147.954C150.287 147.88 149.937 147.864 149.572 147.912C149.37 147.939 148.889 148.006 148.503 148.06C148.117 148.114 147.448 148.207 147.017 148.266C146.586 148.325 145.982 148.409 145.675 148.453C145.369 148.496 145.053 148.537 144.974 148.544C144.871 148.552 144.826 148.577 144.815 148.633C144.802 148.7 144.819 148.707 144.939 148.686C145.015 148.672 145.235 148.642 145.428 148.618ZM126.975 148.267C126.975 148.233 126.933 148.196 126.882 148.185C126.713 148.148 125.681 147.915 125.323 147.834C125.311 147.831 125.298 147.828 125.286 147.825C123.813 147.49 123.653 147.454 123.505 147.48C123.487 147.484 123.469 147.488 123.449 147.492C123.448 147.493 123.446 147.493 123.445 147.493C123.297 147.528 123.29 147.534 123.383 147.555C123.654 147.616 124.488 147.797 124.952 147.894C125.236 147.954 125.793 148.074 126.19 148.161C126.588 148.248 126.927 148.321 126.944 148.323C126.961 148.326 126.975 148.3 126.975 148.267ZM145.438 148.184C146.259 148.012 147.333 147.784 147.862 147.669L148.376 147.556L148.162 147.528C147.981 147.504 147.729 147.549 146.533 147.817C145.755 147.991 145.053 148.145 144.974 148.159C144.88 148.176 144.825 148.211 144.815 148.26C144.804 148.32 144.818 148.33 144.887 148.308C144.935 148.293 145.183 148.237 145.438 148.184ZM126.966 147.027C126.959 147.021 126.75 147.042 126.5 147.073C126.25 147.104 125.843 147.15 125.596 147.175C125.348 147.2 125.113 147.233 125.072 147.248C125.024 147.266 125.335 147.39 125.976 147.609L126.954 147.943L126.966 147.49C126.972 147.241 126.972 147.033 126.966 147.027ZM146.61 147.324C146.626 147.309 145.6 147.186 145.128 147.146L144.808 147.119V147.53V147.942L145.703 147.639C146.195 147.473 146.603 147.331 146.61 147.324ZM135.726 130.432V110.679H136.201H136.676V130.432V150.186H136.201H135.726V130.432Z" fill="white"/>
<path d="M135.726 110.679V130.432V150.186H136.201H136.676V130.432V110.679H136.201H135.726Z" fill="white"/>
<path fill-rule="evenodd" clip-rule="evenodd" d="M127.284 155.748C129.352 155.932 130.846 156.03 132.648 156.098C133.884 156.145 137.786 156.146 138.988 156.101C141.041 156.023 142.371 155.937 144.499 155.748C146.221 155.594 149.231 155.144 150.567 154.841C151.83 154.554 152.48 154.38 153.319 154.103C155.089 153.519 156.197 152.847 156.542 152.145L156.677 151.871V151.21C156.677 150.567 156.674 150.542 156.56 150.31C156.191 149.559 154.924 148.797 153.023 148.182C152.561 148.033 152.319 147.962 151.537 147.746C150.195 147.376 147.192 146.857 145.046 146.626L144.808 146.6V129.533V112.465H144.086H143.363V131.328V150.191L143.477 150.214C143.539 150.227 143.823 150.266 144.107 150.3C144.39 150.334 144.827 150.39 145.077 150.424C145.88 150.533 147.063 150.69 149.442 151.002C150.655 151.162 151.401 151.26 152.239 151.371C152.659 151.427 153.374 151.521 153.828 151.581C155.084 151.746 155.803 151.849 155.817 151.863C155.841 151.886 155.363 152.225 155.17 152.322L154.984 152.416L154.345 152.297C153.444 152.13 152.868 152.025 152.342 151.933C152.093 151.889 151.47 151.777 150.959 151.684L149.453 151.411C149.135 151.353 148.689 151.271 148.462 151.227C148.235 151.184 147.938 151.131 147.801 151.11C147.665 151.088 147.191 151.003 146.749 150.921C146.306 150.838 145.739 150.735 145.489 150.691C145.24 150.647 144.831 150.574 144.581 150.528C144.332 150.482 143.864 150.398 143.543 150.342C143.222 150.286 142.864 150.219 142.748 150.194L142.538 150.149V131.307V112.466H141.815H141.093V131.329C141.093 149.258 141.097 150.193 141.165 150.214C141.205 150.227 141.377 150.264 141.547 150.297C141.717 150.331 142.172 150.424 142.558 150.506C142.944 150.588 143.39 150.681 143.549 150.713C143.708 150.746 144.108 150.829 144.437 150.899C144.766 150.969 145.165 151.053 145.324 151.085C145.483 151.118 145.883 151.201 146.212 151.271C146.541 151.34 146.941 151.424 147.1 151.456C147.258 151.489 147.658 151.573 147.987 151.642C148.316 151.712 149.032 151.862 149.576 151.976C150.121 152.089 150.744 152.22 150.959 152.265C151.175 152.31 151.528 152.384 151.744 152.428C151.959 152.472 152.35 152.554 152.611 152.61C152.872 152.667 153.257 152.746 153.467 152.786C153.677 152.826 153.849 152.871 153.849 152.885C153.849 152.9 153.674 152.968 153.459 153.037C153.14 153.139 153.04 153.155 152.912 153.125C152.826 153.105 152.346 152.995 151.847 152.881C150.435 152.558 150.056 152.47 149.7 152.384C149.519 152.34 149.156 152.257 148.895 152.199C148.634 152.141 148.272 152.057 148.09 152.013C147.909 151.968 147.509 151.876 147.203 151.808C146.896 151.739 146.534 151.656 146.398 151.623C146.261 151.59 145.909 151.507 145.613 151.44C145.318 151.372 144.714 151.233 144.272 151.13C143.829 151.027 143.058 150.849 142.558 150.733C142.059 150.618 141.297 150.44 140.866 150.338L140.082 150.153V129.792V109.431L139.679 109.42L139.277 109.408V129.799V150.191L139.411 150.232C139.485 150.255 139.731 150.323 139.958 150.384C140.185 150.444 140.528 150.538 140.721 150.591C140.914 150.644 141.286 150.746 141.547 150.818C141.808 150.889 142.105 150.971 142.208 151.001C142.31 151.03 142.57 151.103 142.786 151.162C143.667 151.405 144.563 151.651 144.932 151.751C145.148 151.809 145.473 151.899 145.655 151.951C145.836 152.003 146.375 152.151 146.852 152.281C147.329 152.41 147.802 152.54 147.905 152.57C148.127 152.635 148.53 152.746 149.927 153.129C151.486 153.556 151.493 153.558 151.477 153.574C151.469 153.582 151.234 153.639 150.953 153.701L150.443 153.815L149.948 153.662C149.676 153.578 148.979 153.365 148.4 153.19C147.821 153.014 147.087 152.791 146.769 152.694C146.451 152.596 145.996 152.457 145.758 152.385C145.519 152.313 145.092 152.183 144.808 152.096C144.525 152.01 144.097 151.88 143.859 151.808C143.62 151.736 143.165 151.597 142.847 151.499C142.53 151.401 142.232 151.312 142.187 151.301C142.142 151.29 141.705 151.158 141.217 151.008L139.999 150.635C139.817 150.579 139.395 150.448 139.06 150.344L138.451 150.153V130.094V110.035L138.017 110.022C137.778 110.015 137.564 110.015 137.542 110.023C137.516 110.032 137.501 117.053 137.501 130.113V150.19L137.739 150.273C137.869 150.318 138.162 150.424 138.389 150.507C138.616 150.591 138.848 150.675 138.905 150.694C138.962 150.713 139.194 150.796 139.421 150.879C139.648 150.962 139.88 151.045 139.937 151.064C139.994 151.082 140.226 151.166 140.453 151.25C140.68 151.334 140.94 151.428 141.031 151.458C141.122 151.488 141.382 151.581 141.609 151.664C141.836 151.747 142.068 151.83 142.125 151.848C142.182 151.867 142.414 151.95 142.641 152.033C142.868 152.116 143.342 152.287 143.694 152.411C144.046 152.536 144.454 152.683 144.602 152.737C144.75 152.792 145.112 152.923 145.407 153.029C146.083 153.271 146.343 153.365 147.038 153.617C147.344 153.729 147.796 153.89 148.041 153.976C148.286 154.062 148.472 154.145 148.453 154.161C148.389 154.219 145.911 154.545 144.392 154.695C143.03 154.831 140.656 154.98 139.029 155.032C137.381 155.084 132.691 155.058 131.412 154.989C128.679 154.841 126.278 154.613 124.077 154.291L123.594 154.221L125.831 153.423C127.062 152.985 129.295 152.19 130.793 151.656C132.292 151.123 133.592 150.66 133.683 150.627C133.774 150.594 134.08 150.486 134.364 150.388L134.88 150.209V130.79V111.372H134.447H134.013L134.003 130.762L133.992 150.152L133.404 150.334C133.081 150.434 132.491 150.614 132.094 150.733C131.696 150.852 131.111 151.029 130.793 151.126C130.475 151.222 129.89 151.398 129.493 151.517C129.095 151.636 128.538 151.804 128.254 151.89C127.97 151.977 127.478 152.125 127.16 152.22C126.842 152.314 126.276 152.485 125.901 152.599C125.527 152.713 125.155 152.824 125.076 152.847C124.996 152.87 124.532 153.009 124.044 153.157C123.555 153.305 123.091 153.445 123.011 153.467C122.932 153.489 122.601 153.589 122.275 153.689C121.628 153.889 121.552 153.891 120.947 153.727C120.822 153.694 120.674 153.664 120.617 153.662C120.499 153.658 120.869 153.538 121.69 153.315C121.997 153.232 122.331 153.139 122.434 153.11C122.536 153.08 122.796 153.008 123.011 152.949C123.555 152.802 124.102 152.651 124.529 152.532C124.727 152.477 125.103 152.373 125.365 152.302C125.626 152.23 125.923 152.148 126.025 152.119C126.325 152.032 128.733 151.369 129.493 151.164C129.708 151.105 129.969 151.033 130.071 151.002C130.173 150.971 130.507 150.879 130.814 150.796C131.12 150.713 131.455 150.62 131.557 150.59C131.659 150.559 131.993 150.466 132.3 150.383C132.606 150.301 132.881 150.226 132.909 150.217C132.95 150.203 132.96 146.39 132.96 131.333V112.465H132.259H131.557V131.311C131.557 141.676 131.549 150.156 131.54 150.156C131.531 150.156 131.192 150.238 130.787 150.339C130.382 150.44 129.781 150.587 129.452 150.667C127.832 151.061 126.721 151.332 126.046 151.497C125.637 151.597 125.033 151.744 124.704 151.824C122.777 152.289 120.439 152.859 119.621 153.063L118.934 153.234L118.486 153.092L118.037 152.951L118.305 152.893C118.88 152.769 119.539 152.625 119.874 152.551C120.067 152.509 120.439 152.428 120.7 152.372C120.961 152.315 121.388 152.222 121.649 152.165C122.151 152.056 122.332 152.017 123.878 151.683C124.412 151.567 125.053 151.428 125.303 151.373C125.552 151.318 125.98 151.225 126.252 151.166C126.525 151.106 126.905 151.023 127.098 150.981C127.291 150.938 127.668 150.856 127.934 150.799C128.201 150.741 128.629 150.648 128.884 150.592C129.139 150.535 129.581 150.44 129.864 150.38C130.148 150.32 130.45 150.254 130.535 150.233L130.69 150.194V131.33V112.465H129.967H129.245L129.255 131.306L129.266 150.147L128.832 150.233C128.594 150.281 128.148 150.366 127.842 150.424C127.535 150.481 127.033 150.576 126.727 150.634C126.42 150.692 125.984 150.774 125.757 150.816C125.263 150.908 124.382 151.074 123.672 151.208C123.388 151.262 122.645 151.402 122.021 151.518C120.762 151.754 119.516 151.989 117.941 152.287L116.896 152.486L116.682 152.367C116.565 152.302 116.359 152.172 116.225 152.08L115.981 151.911L116.183 151.882C116.295 151.866 116.739 151.805 117.17 151.746C117.601 151.687 118.205 151.603 118.512 151.56C118.818 151.517 119.431 151.433 119.874 151.373C120.317 151.314 120.93 151.23 121.236 151.187C121.543 151.144 122.147 151.061 122.578 151.002C123.009 150.943 123.697 150.849 124.105 150.793L125.612 150.586C126.032 150.528 126.627 150.446 126.933 150.404C127.24 150.361 127.658 150.305 127.862 150.28C128.066 150.255 128.275 150.224 128.327 150.211L128.419 150.188V131.327V112.466H127.697H126.975V129.53V146.594L126.598 146.622C126.172 146.655 124.566 146.858 123.94 146.959C123.069 147.1 122.316 147.232 121.959 147.308C121.754 147.351 121.522 147.398 121.443 147.413C121.363 147.427 121.001 147.512 120.638 147.6C117.579 148.342 115.808 149.212 115.245 150.251L115.106 150.507V151.189V151.871L115.241 152.145C115.586 152.847 116.693 153.519 118.464 154.103C119.303 154.38 119.953 154.554 121.216 154.841C122.551 155.144 125.562 155.594 127.284 155.748ZM156.152 150.918C156.104 150.494 155.675 149.936 155.118 149.572L154.859 149.416L149.834 149.375L144.808 149.346V149.745C144.808 150.098 144.817 150.144 144.881 150.144C144.92 150.144 145.241 150.172 145.593 150.206C145.945 150.24 146.493 150.287 146.811 150.31C147.129 150.333 147.797 150.388 148.297 150.433C148.796 150.477 149.79 150.561 150.505 150.619C151.221 150.677 152.224 150.761 152.735 150.806C153.246 150.85 153.933 150.907 154.262 150.931C154.591 150.956 155.093 151 155.377 151.03C155.661 151.06 155.956 151.086 156.032 151.089L156.172 151.094L156.152 150.918ZM152.652 148.755C151.323 148.806 147.526 148.945 146.291 148.988L146.08 148.995C144.963 149.034 144.824 149.038 144.81 148.998C144.809 148.996 144.809 148.995 144.808 148.994C144.808 148.991 144.808 148.989 144.808 148.986C144.808 148.983 144.808 148.981 144.808 148.978C144.808 148.975 144.808 148.971 144.808 148.968C144.808 148.921 144.86 148.906 145.025 148.906C145.144 148.906 145.604 148.879 146.047 148.845C146.49 148.812 147.177 148.766 147.574 148.743C147.972 148.72 148.863 148.664 149.556 148.617C150.248 148.571 151.181 148.51 151.629 148.482L152.442 148.43L152.908 148.579L153.375 148.727L152.652 148.755ZM145.428 148.618C145.956 148.554 147.353 148.376 148.028 148.287C148.358 148.243 148.739 148.196 148.875 148.181C149.011 148.167 149.37 148.119 149.672 148.076C149.974 148.033 150.299 147.996 150.394 147.995C150.544 147.993 150.555 147.987 150.471 147.954C150.287 147.88 149.937 147.864 149.572 147.912C149.37 147.939 148.889 148.006 148.503 148.06C148.117 148.114 147.448 148.207 147.017 148.266C146.586 148.325 145.982 148.409 145.675 148.453C145.369 148.496 145.053 148.537 144.974 148.544C144.871 148.552 144.826 148.577 144.815 148.633C144.802 148.7 144.819 148.707 144.939 148.686C145.015 148.672 145.235 148.642 145.428 148.618ZM147.862 147.669C147.333 147.784 146.259 148.012 145.438 148.184C145.183 148.237 144.935 148.293 144.887 148.308C144.818 148.33 144.804 148.32 144.815 148.26C144.825 148.211 144.88 148.176 144.974 148.159C145.053 148.145 145.755 147.991 146.533 147.817C147.729 147.549 147.981 147.504 148.162 147.528L148.376 147.556L147.862 147.669ZM146.61 147.324C146.626 147.309 145.6 147.186 145.128 147.146L144.808 147.119V147.53V147.942L145.703 147.639C146.195 147.473 146.603 147.331 146.61 147.324ZM118.326 150.909C118.144 150.923 117.633 150.969 117.191 151.012C116.748 151.054 116.207 151.102 115.989 151.117L115.592 151.144L115.624 150.938C115.696 150.484 116.081 149.995 116.679 149.598L116.973 149.403L121.974 149.375L126.975 149.346V149.745C126.975 150.055 126.962 150.144 126.918 150.144C126.887 150.144 126.492 150.18 126.041 150.224C125.589 150.268 125.062 150.315 124.869 150.33C124.676 150.344 124.249 150.382 123.92 150.415C123.59 150.448 123.08 150.493 122.784 150.516C122.489 150.539 121.844 150.595 121.35 150.64C119.687 150.792 118.658 150.884 118.326 150.909ZM126.975 148.968C126.975 148.92 126.921 148.906 126.737 148.906C126.607 148.906 126.128 148.877 125.674 148.843C125.22 148.808 124.533 148.762 124.147 148.741C123.761 148.719 122.888 148.663 122.206 148.617C121.525 148.571 120.601 148.51 120.152 148.481L119.335 148.43L118.903 148.571C118.665 148.649 118.475 148.718 118.482 148.724C118.488 148.731 119.059 148.755 119.751 148.779C120.443 148.803 121.752 148.851 122.661 148.887C124.631 148.963 126.118 149.015 126.613 149.023C126.91 149.028 126.975 149.018 126.975 148.968ZM126.5 148.5C126.961 148.555 126.975 148.559 126.975 148.636C126.975 148.708 126.966 148.708 126.438 148.635C126.222 148.605 125.665 148.532 125.199 148.473C124.734 148.414 124.074 148.33 123.734 148.285C122.703 148.151 122.145 148.082 121.711 148.034C121.169 147.975 121.131 147.957 121.401 147.891C121.644 147.832 121.644 147.832 123.094 148.04C123.401 148.084 123.8 148.138 123.982 148.161C124.163 148.184 124.721 148.26 125.22 148.329C125.72 148.399 126.295 148.476 126.5 148.5ZM126.975 148.267C126.975 148.233 126.933 148.196 126.882 148.185C126.713 148.148 125.681 147.915 125.323 147.834L125.286 147.825C123.813 147.49 123.653 147.454 123.505 147.48C123.487 147.484 123.469 147.488 123.449 147.492L123.445 147.493C123.297 147.528 123.29 147.534 123.383 147.555C123.654 147.616 124.488 147.797 124.952 147.894C125.236 147.954 125.793 148.074 126.19 148.161C126.588 148.248 126.927 148.321 126.944 148.323C126.961 148.326 126.975 148.3 126.975 148.267ZM126.5 147.073C126.75 147.042 126.959 147.021 126.966 147.027C126.972 147.033 126.972 147.241 126.966 147.49L126.954 147.943L125.976 147.609C125.335 147.39 125.024 147.266 125.072 147.248C125.113 147.233 125.348 147.2 125.596 147.175C125.843 147.15 126.25 147.104 126.5 147.073Z" fill="white"/>
</svg>