<svg width="540" height="432" viewBox="0 0 540 432" fill="none" xmlns="http://www.w3.org/2000/svg">
<path fill-rule="evenodd" clip-rule="evenodd" d="M304.441 357.922C307.53 358.328 313.269 359.448 321.665 361.281C328.946 362.708 334.795 363.62 339.217 364.031C344.071 364.443 351.577 364.844 361.728 365.255C360.847 366.682 358.634 368.313 355.103 370.146C353.118 371.161 350.467 372.484 347.155 374.115C341.202 377.786 333.91 380.536 325.3 382.37C320.217 383.599 312.269 384.807 301.457 386.036C298.363 386.234 296.488 386.536 295.821 386.958C294.717 387.365 293.832 388.786 293.175 391.234C299.129 391.036 306.207 392.974 314.373 397.042C318.78 399.484 325.186 403.151 333.571 408.047C330.931 409.672 325.962 410.484 318.67 410.484L290.853 410.177C294.165 415.479 295.488 420.974 294.832 426.677C281.368 422.802 271.212 420.667 264.358 420.266C259.061 419.849 253.436 418.526 247.467 416.281L243.826 414.76L241.837 416.281C240.295 417.505 238.092 418.625 235.217 419.646C231.233 420.661 228.811 421.375 227.925 421.786C222.405 424.844 218.103 426.875 215.014 427.896C213.472 428.714 210.816 429.63 207.066 430.641V421.172C208.608 415.474 209.384 411.188 209.384 408.339V406.193C203.649 405.182 198.681 402.938 194.483 399.474C191.608 397.224 187.748 394.786 182.894 392.135C177.155 389.281 172.957 387.047 170.316 385.417C166.561 383.172 162.696 381.953 158.722 381.75C147.243 381.948 139.514 381.24 135.54 379.609C152.535 370.042 173.399 365.958 198.123 367.385L212.045 369.224C217.566 370.042 224.186 370.651 231.915 371.052C236.326 371.255 242.951 371.464 251.785 371.672C257.306 372.073 263.925 370.651 271.655 367.391C283.363 362.089 289.655 359.349 290.535 359.146C295.608 357.708 300.243 357.307 304.441 357.922Z" fill="#344B19"/>
<path fill-rule="evenodd" clip-rule="evenodd" d="M249.8 412.61C249.576 410.365 251.233 408.844 254.769 408.031C257.212 407.276 259.748 406.964 262.379 407.11C262.597 407.094 262.816 407.094 263.045 407.11C267.29 407.422 272.035 408.641 277.28 410.776C286.55 414.849 290.962 418.828 290.524 422.698C286.118 421.068 282.686 419.948 280.259 419.328C276.514 417.906 273.087 417.089 269.993 416.886L260.722 415.667C260.504 415.667 259.285 414.948 257.082 413.526C255.097 412.917 252.67 412.61 249.8 412.61Z" fill="#446320"/>
<path fill-rule="evenodd" clip-rule="evenodd" d="M281.259 407.417L284.571 408.943C287.217 408.943 288.764 410.26 289.201 412.917C289.873 415.354 288.436 415.667 284.904 413.828C283.134 413.219 281.259 411.797 279.269 409.557C277.061 407.109 277.722 406.396 281.259 407.417Z" fill="#446320"/>
<path fill-rule="evenodd" clip-rule="evenodd" d="M210.061 424.833L211.045 423.917C215.248 421.057 220.321 419.839 226.28 420.25C224.514 422.078 221.868 423.703 218.342 425.135C214.358 426.766 211.274 427.474 209.066 427.266C209.066 426.255 209.399 425.448 210.061 424.833Z" fill="#446320"/>
<path fill-rule="evenodd" clip-rule="evenodd" d="M153.764 373.802L156.405 375.031C161.483 375.031 165.123 376.453 167.332 379.313C164.457 379.516 160.821 379.417 156.405 379.005C151.108 378.594 147.576 378.391 145.806 378.391C150.228 375.328 152.873 373.802 153.764 373.802Z" fill="#446320"/>
<path fill-rule="evenodd" clip-rule="evenodd" d="M348.488 367.385L351.467 368.307C350.806 369.729 348.373 371.052 344.181 372.281C340.201 373.505 337.446 373.912 335.905 373.505C334.795 374.115 333.358 373.813 331.597 372.583C328.946 370.755 327.399 369.729 326.962 369.531C329.175 368.104 332.707 367.49 337.566 367.693C343.295 367.896 346.936 367.797 348.488 367.385Z" fill="#446320"/>
<path fill-rule="evenodd" clip-rule="evenodd" d="M335.243 365.859C333.915 366.271 332.04 366.37 329.613 366.167C326.962 365.76 324.972 365.464 323.649 365.25V363.109C325.42 362.912 327.847 363.214 330.941 364.031C334.254 365.052 336.681 365.464 338.228 365.255L335.243 365.859Z" fill="#446320"/>
<path fill-rule="evenodd" clip-rule="evenodd" d="M303.118 408.031L296.493 407.417C272.207 401.917 252.451 403.745 237.217 412.917L226.951 416.578C216.576 421.068 204.868 423.406 191.847 423.615C184.118 423.818 172.087 423 155.748 421.172C144.488 419.542 133.227 416.182 121.962 411.094C106.076 403.964 99.2275 396.12 101.431 387.557C119.759 393.875 136.972 394.995 153.092 390.917C156.842 389.906 161.259 388.063 166.342 385.427C172.524 381.958 176.608 379.823 178.597 379.005C182.347 377.375 186.993 376.453 192.509 376.255H207.41L202.441 371.375C199.571 369.536 191.405 367.094 177.936 364.036C166.233 361.594 159.613 358.74 158.066 355.479C175.061 352.839 188.54 351.198 198.478 350.594C213.493 349.786 226.738 350.698 238.217 353.344C247.045 355.385 251.681 356.505 252.123 356.708C253.233 357.318 254.332 358.745 255.436 360.99C256.326 363.229 257.311 364.547 258.415 364.958C263.056 366.792 268.79 368.729 275.639 370.771C284.03 373.411 289.988 374.844 293.519 375.052C307.873 375.859 322.993 380.547 338.889 389.104C355.009 397.458 363.509 405.401 364.394 412.943C349.149 409.25 328.722 407.62 303.118 408.031Z" fill="#587F43"/>
<path fill-rule="evenodd" clip-rule="evenodd" d="M329.941 405.583C322.884 405.177 311.181 405.177 294.837 405.583C271.873 405.787 260.285 405.886 260.066 405.886C248.363 406.708 237.321 409.25 226.951 413.526C216.347 417.807 204.649 420.047 191.847 420.255C183.457 420.458 171.42 419.542 155.748 417.5C144.707 416.276 133.446 413.12 121.962 408.031C106.076 401.302 99.2275 393.865 101.431 385.724C119.978 391.636 137.196 392.646 153.092 388.776C157.076 387.969 161.483 386.229 166.342 383.589C172.962 380.125 177.05 378.083 178.597 377.474C182.347 376.052 186.993 375.229 192.509 375.031C195.384 374.833 200.353 374.833 207.41 375.031L202.441 370.453C199.571 368.823 191.405 366.469 177.936 363.417C166.233 360.979 159.613 358.229 158.066 355.167C175.061 352.521 188.54 350.99 198.478 350.589C213.493 349.781 226.738 350.693 238.217 353.339C245.722 354.563 250.358 355.578 252.123 356.391C253.233 357.005 254.332 358.432 255.436 360.672C256.326 362.708 257.311 363.927 258.415 364.333C261.061 365.354 265.373 365.563 271.332 364.948C278.837 364.333 283.363 364.136 284.91 364.333C300.8 365.151 316.373 369.531 331.603 377.474C348.603 386.229 359.535 397.026 364.389 409.87C353.342 407.417 341.863 405.984 329.941 405.583Z" fill="#446320"/>
<path fill-rule="evenodd" clip-rule="evenodd" d="M327.957 383.589L331.931 385.115L338.222 389.385C336.452 388.776 333.806 388.167 330.274 387.557C326.082 386.75 323.431 386.234 322.327 386.036C318.577 385.016 313.061 384.51 305.769 384.51C293.847 385.125 286.342 386.453 283.254 388.484C280.608 390.318 280.056 391.745 281.597 392.766C282.696 393.583 284.795 394.396 287.889 395.214C287.222 395.828 285.79 396.333 283.587 396.734C281.379 397.354 279.837 398.052 278.952 398.875C276.743 401.516 278.285 403.76 283.587 405.594C270.337 405.594 260.951 405.901 255.436 406.516C245.722 407.531 236.228 409.88 226.957 413.547C223.644 414.969 219.894 416.198 215.696 417.219L217.353 415.693C219.774 412.839 220.332 409.99 219.009 407.141C218.123 404.49 215.915 402.25 212.384 400.411C208.186 398.167 202.451 396.948 195.165 396.745C192.071 396.536 185.894 396.745 176.613 397.359C160.722 398.167 148.243 397.76 139.196 396.135L146.483 396.745H147.806C156.42 397.557 164.696 397.047 172.644 395.219C174.191 394.807 176.29 394.401 178.936 393.995C181.144 393.375 182.467 392.156 182.91 390.323C184.238 386.042 180.373 382.885 171.321 380.849L178.613 377.49C182.363 376.063 187.004 375.24 192.524 375.042C195.394 374.844 200.363 374.844 207.425 375.042L202.457 370.464C199.582 368.63 191.754 366.391 178.946 363.74C182.472 362.927 187.441 362.214 193.847 361.599C200.691 360.786 205.655 360.073 208.748 359.464C211.175 359.047 214.597 357.943 219.014 356.099C223.431 354.469 226.858 353.458 229.28 353.047C230.608 352.849 232.707 352.734 235.571 352.734L238.222 353.349C245.728 354.578 250.363 355.589 252.134 356.406C253.238 357.021 254.337 358.448 255.441 360.688C256.332 362.719 257.316 363.938 258.425 364.349C261.066 365.37 265.379 365.573 271.337 364.958C278.842 364.349 283.368 364.151 284.915 364.349C296.618 364.958 308.535 367.708 320.675 372.599C318.254 372.188 316.483 372.292 315.379 372.911C313.608 373.719 312.733 374.74 312.733 375.964C312.733 377.182 313.504 378.203 315.056 379.021L317.04 379.932C318.134 381.542 321.769 382.771 327.957 383.589Z" fill="#344B19"/>
<path fill-rule="evenodd" clip-rule="evenodd" d="M195.16 398.245L199.457 399.474C210.28 400.698 213.92 403.958 210.384 409.25C209.498 410.88 207.842 411.896 205.415 412.307C205.201 412.505 203.207 412.724 199.457 412.922C188.639 414.75 183.675 413.839 184.556 410.172C171.743 411.802 163.467 411.401 159.717 408.948C160.155 407.724 162.368 406.302 166.342 404.667C168.55 403.859 171.42 402.74 174.951 401.307C179.592 399.276 186.321 398.245 195.16 398.245Z" fill="#4F7226"/>
<path fill-rule="evenodd" clip-rule="evenodd" d="M162.04 400.396L163.03 401.307C160.602 403.552 155.186 404.979 146.8 405.589C137.754 406.401 133.118 404.979 132.894 401.307C146.8 398.656 156.519 398.354 162.04 400.396Z" fill="#4F7226"/>
<path fill-rule="evenodd" clip-rule="evenodd" d="M133.227 397.948L118.998 398.255C121.201 398.047 124.514 397.339 128.931 396.12H119.66C115.686 396.12 112.707 395.703 110.717 394.896C114.467 393.662 118.884 393.464 123.962 394.276C126.832 394.896 131.024 395.703 136.54 396.724L133.227 397.948Z" fill="#4F7226"/>
<path fill-rule="evenodd" clip-rule="evenodd" d="M143.165 394.896C144.707 395.703 145.488 396.318 145.488 396.724L141.509 394.896H143.165Z" fill="#4F7226"/>
<path fill-rule="evenodd" clip-rule="evenodd" d="M174.295 393.052C170.764 395.292 165.686 396.313 159.061 396.115C151.55 395.495 146.253 395.094 143.165 394.886C140.743 393.865 139.191 393.052 138.53 392.438C139.852 392.031 141.509 392.031 143.498 392.438C146.144 392.641 147.915 392.745 148.8 392.745V391.828C152.113 391.625 157.082 391.729 163.701 392.13C163.259 390.906 162.712 390.099 162.05 389.693C163.592 389.078 166.024 388.573 169.332 388.167C169.769 387.552 170.102 387.047 170.326 386.646C170.988 386.031 171.983 385.828 173.3 386.031C175.733 386.448 176.951 387.453 176.951 389.083C176.946 390.505 176.056 391.833 174.295 393.052Z" fill="#4F7226"/>
<path fill-rule="evenodd" clip-rule="evenodd" d="M336.233 390.912C343.077 393.974 348.488 398.245 352.462 403.75C348.483 401.922 345.728 400.5 344.181 399.474C340.644 397.224 338.441 396.214 337.561 396.417V398.245C336.67 398.448 332.92 397.432 326.3 395.193C321.884 393.563 319.675 394.886 319.675 399.167C315.478 397.537 312.498 396.516 310.728 396.115C307.639 395.292 305.097 396.115 303.118 398.552C299.806 398.141 297.155 397.026 295.17 395.193C292.519 393.151 292.41 390.912 294.837 388.469C296.827 386.432 300.358 385.609 305.436 386.021C308.087 386.219 311.842 386.438 316.696 386.641L315.373 386.021C322.655 386.031 329.613 387.656 336.233 390.912Z" fill="#4F7226"/>
<path fill-rule="evenodd" clip-rule="evenodd" d="M357.092 402.224C352.009 398.969 349.149 395.906 348.483 393.052C341.42 389.38 335.905 386.745 331.92 385.115L329.28 383.589C327.957 382.974 325.967 382.266 323.321 381.448C319.79 380.636 317.691 380.125 317.024 379.922L316.363 379.005C315.696 375.542 319.566 374.427 327.957 375.641C341.202 382.37 351.024 389.896 357.431 398.255L357.092 402.224Z" fill="#4F7226"/>
<path fill-rule="evenodd" clip-rule="evenodd" d="M317.024 379.912C317.696 380.12 319.79 380.63 323.321 381.443C325.967 382.261 327.957 382.969 329.28 383.583L331.92 385.11L327.946 383.583C321.769 382.771 318.134 381.542 317.024 379.912Z" fill="#4F7226"/>
<mask id="mask0_675_151" style="mask-type:luminance" maskUnits="userSpaceOnUse" x="9" y="0" width="531" height="406">
<path d="M9.13379 0H539.8V405.109H9.13379V0Z" fill="white"/>
</mask>
<g mask="url(#mask0_675_151)">
<path fill-rule="evenodd" clip-rule="evenodd" d="M465.389 247.349C473.998 234.724 488.79 218.224 509.764 197.849L538.577 170.958L530.962 182.87C524.118 192.443 516.394 201.714 507.78 210.677C501.379 217.396 493.212 236.24 483.28 267.203C472.899 299.182 462.967 321.083 453.472 332.901C440.889 348.38 423.113 359.583 400.149 366.51C382.274 371.807 357.54 375.375 325.972 377.203C303.457 378.427 279.722 383.417 254.774 392.177L224.3 404.708C218.347 396.151 209.399 385.354 197.478 372.318C173.634 346.651 146.915 323.323 117.332 302.339C87.5296 281.37 60.8109 254.677 37.1911 222.297L10.3682 180.125C15.0036 182.161 29.6859 188.073 54.415 197.849C78.6963 208.438 95.139 218.828 103.748 229.01C117.222 245.313 149.452 279.943 200.457 332.911L213.702 329.542C207.743 317.927 203.332 309.177 200.457 303.266L182.905 266.599C181.363 263.135 174.077 248.875 161.05 223.823C152.217 206.708 145.925 192.146 142.17 180.125C136.212 160.37 133.894 135.005 135.212 104.042C137.868 69.6146 139.191 44.0469 139.191 27.3438L141.832 20.9271C146.472 46.3906 152.545 66.349 160.05 80.8177C171.754 102.818 179.587 117.995 183.566 126.349C191.733 143.464 197.8 159.25 201.78 173.714C211.045 204.88 215.358 234.615 214.691 262.938C214.03 285.344 216.347 304.391 221.649 320.083L221.311 327.714C228.16 325.469 231.915 323.641 232.571 322.214C233.899 318.547 236.774 307.958 241.186 290.432C246.488 268.839 251.004 248.37 254.769 229.01C258.3 210.479 258.3 174.109 254.769 119.932L248.144 44.1459L258.41 56.3698C266.134 68.1927 272.873 82.9531 278.613 100.677C284.347 118.604 285.123 154.047 280.931 207.016C278.941 233.495 276.405 258.135 273.321 280.958C289.207 256.521 299.483 236.651 304.113 221.38C306.54 213.229 311.623 200.906 319.353 184.406C330.165 161.182 338.665 141.927 344.853 126.651C353.243 105.667 361.957 78.2709 371.014 44.4479L382.274 -0.161438L387.571 44.4479C389.561 81.7344 386.577 118.813 378.623 155.677C370.899 192.552 352.243 234.208 322.665 280.651C307.649 303.875 293.519 323.328 280.274 339.021C285.129 337.594 290.54 335.354 296.504 332.302C308.644 326.385 317.915 319.969 324.321 313.047C338.228 297.563 359.202 258.854 387.238 196.938C397.837 173.302 414.285 152.219 436.577 133.688L467.045 112.901L458.436 123.292C451.368 133.271 444.634 145.594 438.228 160.26C436.467 164.344 430.618 182.875 420.681 215.88C412.952 241.547 402.353 265.792 388.889 288.604C374.972 312.443 359.087 331.583 341.202 346.057C332.592 353.177 326.41 357.458 322.655 358.891C324.426 358.479 334.91 357.26 354.118 355.219C374.868 352.573 390.431 348.698 400.811 343.604C410.967 338.719 422.337 324.964 434.915 302.354C448.394 275.875 458.545 257.536 465.389 247.349Z" fill="#587F43"/>
</g>
<mask id="mask1_675_151" style="mask-type:luminance" maskUnits="userSpaceOnUse" x="15" y="0" width="519" height="406">
<path d="M15.8004 0H533.134V405.109H15.8004V0Z" fill="white"/>
</mask>
<g mask="url(#mask1_675_151)">
<path fill-rule="evenodd" clip-rule="evenodd" d="M460.754 247.349C469.144 234.724 483.498 218.224 503.806 197.849L531.952 170.958L524.665 182.87C518.045 192.443 510.535 201.714 502.149 210.677C495.962 217.396 488.014 236.24 478.306 267.203C468.144 299.391 458.436 321.286 449.16 332.901C437.019 348.38 419.686 359.583 397.17 366.51C379.504 371.807 355.436 375.375 324.972 377.203C302.899 378.427 279.717 383.417 255.431 392.177L225.623 404.708C219.889 396.151 211.16 385.354 199.462 372.318C176.28 346.651 150.228 323.323 121.306 302.339C92.389 281.354 66.3369 254.677 43.1546 222.297L16.9932 180.125C21.4098 182.161 35.7536 188.073 60.0453 197.849C83.889 208.438 99.8942 218.828 108.061 229.01C121.306 245.313 152.769 279.943 202.441 332.911L215.358 329.542C209.618 317.927 205.311 309.177 202.441 303.266C199.571 297.766 193.832 285.542 185.222 266.599C183.681 263.135 176.608 248.875 164.03 223.823C155.191 206.708 149.014 192.146 145.483 180.125C139.743 160.37 137.535 135.005 138.858 104.042C141.504 69.6198 142.832 44.0521 142.832 27.349L145.155 20.9375C149.571 46.1927 155.53 66.1562 163.035 80.8281C175.181 104.458 182.79 119.625 185.884 126.359C193.832 143.474 199.795 159.255 203.769 173.719C212.597 205.703 216.686 235.438 216.019 262.943C215.587 286.365 217.894 305.411 222.978 320.089L222.644 327.724C229.488 325.474 233.248 323.646 233.905 322.224C235.228 318.766 237.983 308.167 242.186 290.438C247.483 268.844 251.899 248.38 255.431 229.016C258.962 210.484 258.853 174.115 255.097 119.938L248.806 44.151L258.743 56.375C266.472 68.1979 273.092 82.9583 278.613 100.682C284.129 118.615 285.014 154.052 281.259 207.021C279.269 233.505 276.733 258.146 273.644 280.964C289.097 256.526 299.03 236.656 303.452 221.385C305.655 213.443 310.623 201.115 318.353 184.411C328.722 161.797 337.004 142.547 343.191 126.656C351.582 105.672 360.186 78.276 369.019 44.4583L379.618 -0.15625L384.915 44.4583C386.686 81.7396 383.816 118.818 376.306 155.682C368.795 192.557 350.472 234.214 321.332 280.661C306.978 303.88 293.295 323.333 280.269 339.026C284.905 337.599 290.202 335.359 296.165 332.307C308.087 326.391 317.134 319.974 323.321 313.052C336.785 297.771 357.202 259.073 384.587 196.943C394.957 173.307 411.077 152.224 432.936 133.693L462.41 112.906L453.801 123.297C446.957 133.276 440.441 145.599 434.259 160.271C432.493 164.547 426.748 183.083 417.04 215.88C409.53 241.547 399.264 265.792 386.238 288.604C372.774 312.443 357.202 331.583 339.545 346.057C331.155 353.177 325.191 357.458 321.665 358.891C323.431 358.479 333.691 357.26 352.462 355.219C372.551 352.573 387.67 348.698 397.832 343.604C407.764 338.719 418.92 324.964 431.28 302.354C444.301 275.875 454.129 257.536 460.754 247.349Z" fill="#385018"/>
</g>
<path fill-rule="evenodd" clip-rule="evenodd" d="M436.91 290.073C446.618 280.703 453.905 269.911 458.764 257.688C459.202 261.151 458.655 266.651 457.108 274.188C455.785 281.312 455.452 286.812 456.118 290.682C459.207 287.63 462.077 282.542 464.728 275.406C468.483 265.422 470.8 259.615 471.686 257.984C472.347 259.615 473.675 260.844 475.66 261.656L478.972 262.88C473.894 279.792 469.702 292.214 466.389 300.156C461.092 313.604 455.353 324.302 449.17 332.245C437.03 347.724 419.696 358.927 397.175 365.854C379.509 371.156 355.441 374.719 324.983 376.547C302.905 377.771 279.722 382.76 255.436 391.521L225.634 404.052C219.894 395.495 211.165 384.698 199.472 371.661C176.29 345.995 150.233 322.667 121.316 301.682C90.4046 279.276 63.4723 251.474 40.5088 218.266L41.5036 219.188C44.1442 221.828 49.0088 226.922 56.0765 234.464C62.915 240.776 69.0973 243.427 74.6182 242.401C73.514 233.031 66.1234 222.745 52.4255 211.547L49.7744 205.74C53.0869 210.021 57.6182 212.359 63.3525 212.771C65.1234 213.589 66.7796 213.995 68.3213 213.995L64.6807 210.328L65.0088 208.802C69.6442 210.839 73.9515 211.453 77.9255 210.63C78.363 208.802 78.04 206.969 76.9307 205.13C91.2848 212.87 101.655 220.609 108.061 228.349C121.306 244.646 152.769 279.281 202.441 332.245L215.358 328.88C209.618 317.266 205.311 308.516 202.441 302.604C199.571 297.104 193.832 284.88 185.222 265.938C182.129 259.005 177.379 249.333 170.983 236.911C164.139 223.667 159.28 214.099 156.41 208.188C165.91 214.911 174.738 219.193 182.905 221.021C181.363 206.958 180.149 197.693 179.264 193.214C177.717 183.635 175.29 174.573 171.978 166.021C170.207 161.333 166.451 153.292 160.717 141.875V141.573C158.504 129.552 156.082 120.38 153.425 114.073C150.78 108.781 149.561 104.906 149.78 102.464C151.326 107.76 154.42 113.771 159.056 120.49C161.931 124.359 166.342 130.062 172.3 137.604C177.597 147.177 181.129 155.526 182.899 162.656L187.202 178.542L189.191 221.323C189.191 245.974 192.285 259.521 198.462 261.969C203.092 256.667 206.629 249.24 209.061 239.656C211.264 248.828 213.592 254.531 216.014 256.781V262.271C215.577 285.693 217.889 304.745 222.967 319.422L222.639 327.052C229.478 324.807 233.243 322.979 233.899 321.552C235.222 318.094 237.978 307.5 242.175 289.771C247.478 268.177 251.894 247.708 255.425 228.349C258.071 212.667 258.405 184.964 256.415 145.24L257.082 138.823C256.415 121.708 256.53 108.979 257.41 100.625C258.514 103.276 260.285 109.688 262.707 119.88C264.702 128.234 267.129 134.234 270.004 137.906C270.004 135.875 270.332 133.734 270.988 131.495L272.983 132.406L276.623 139.745L282.915 135.464C284.462 173.354 281.373 221.635 273.644 280.297C289.097 255.859 299.03 235.99 303.452 220.714C305.655 213.177 309.41 203.401 314.707 191.385C321.993 175.693 327.957 162.255 332.592 151.047C333.91 155.734 335.129 158.177 336.233 158.38C338.004 158.792 341.316 155.625 346.17 148.906C350.582 142.995 354.561 135.365 358.092 125.99C361.842 115.193 364.603 107.042 366.368 101.547C365.931 117.427 365.379 129.349 364.717 137.292C363.608 149.307 361.623 160.318 358.754 170.292C356.769 174.573 353.675 180.99 349.488 189.542C346.394 196.87 344.519 203.297 343.853 208.792L345.175 206.953L334.577 235.38C337.452 230.891 340.764 227.026 344.514 223.766C344.733 228.646 344.514 234.151 343.842 240.26C331.92 263.286 317.795 286.505 301.462 309.932C293.295 321.745 286.228 331.219 280.269 338.349C284.905 336.927 290.202 334.688 296.165 331.63C308.087 325.714 317.134 319.302 323.321 312.375C332.368 301.781 344.181 281.719 358.754 252.182C367.144 244.031 372.67 238.016 375.311 234.151L378.962 233.234C378.962 237.708 378.738 241.078 378.29 243.318C376.967 248.609 376.306 252.38 376.306 254.615C374.764 261.75 374.212 267.552 374.649 272.036C389.665 262.672 402.467 245.349 413.066 220.094C415.769 215.635 417.978 210.693 419.686 205.266C411.17 235.938 400.019 263.49 386.238 287.922C372.774 311.76 357.202 330.901 339.545 345.375C331.155 352.495 325.191 356.776 321.665 358.208C323.431 357.797 333.691 356.578 352.462 354.536C372.55 351.891 387.67 348.016 397.832 342.922C404.457 339.464 411.295 332.63 418.363 322.453C423.436 315.141 429.623 304.344 436.91 290.073Z" fill="#304615"/>
<path fill-rule="evenodd" clip-rule="evenodd" d="M61.3682 228.052C58.0557 228.661 50.9932 225.302 40.1702 217.964C36.863 213.078 31.4567 204.63 23.9463 192.609L27.2588 191.688C29.9046 194.339 33.7692 197.599 38.8473 201.469C41.9411 203.708 46.4671 207.073 52.4255 211.552C57.0609 219.901 60.04 225.406 61.3682 228.052Z" fill="#3F5A1B"/>
<path fill-rule="evenodd" clip-rule="evenodd" d="M41.4983 219.193L40.1702 217.964C50.9931 225.302 58.0556 228.662 61.3681 228.052C60.04 225.406 57.0608 219.906 52.4202 211.552C66.1077 222.75 73.5087 233.042 74.6129 242.406C69.092 243.427 62.9097 240.787 56.066 234.469C49.0035 226.932 44.1389 221.833 41.4983 219.193Z" fill="#3F5A1B"/>
<path fill-rule="evenodd" clip-rule="evenodd" d="M33.217 192.609C36.5295 191.385 42.0452 191.385 49.7743 192.609C56.8368 195.464 62.1337 197.802 65.665 199.63C65.2275 200.859 65.0035 203.911 65.0035 208.802L62.6858 207.891L64.6702 210.333V212.776H63.3472C61.8056 211.958 60.0347 210.635 58.0504 208.802C55.3993 206.563 53.6337 205.141 52.7483 204.521C48.1129 202.281 44.691 200.552 42.4775 199.328C38.5191 197.083 35.4254 194.849 33.217 192.609Z" fill="#3F5A1B"/>
<path fill-rule="evenodd" clip-rule="evenodd" d="M77.9255 210.63C73.9463 211.453 69.6442 210.839 65.0088 208.802C65.0088 203.912 65.2275 200.86 65.6702 199.63L76.9307 205.141C78.04 206.969 78.363 208.802 77.9255 210.63Z" fill="#3F5A1B"/>
<path fill-rule="evenodd" clip-rule="evenodd" d="M64.6807 210.328L68.3213 213.995C66.7796 213.995 65.1234 213.589 63.3525 212.771H64.6807V210.328Z" fill="#3F5A1B"/>
<path fill-rule="evenodd" clip-rule="evenodd" d="M155.42 166.323C156.082 166.943 155.639 165.104 154.092 160.823C152.326 156.958 151.113 154.609 150.451 153.797C148.681 151.349 146.696 149.932 144.488 149.516C143.602 140.552 143.602 129.766 144.488 117.13C146.259 108.984 146.915 102.87 146.477 98.7969L149.129 101.245C148.457 110 152.326 123.547 160.717 141.88C162.701 149.219 166.67 159.813 172.639 173.661C177.056 186.297 178.597 197.391 177.274 206.969C170.649 199.63 165.467 193.724 161.701 189.245C154.644 180.484 155.42 176.818 164.03 178.245C159.832 172.953 156.967 168.974 155.42 166.323Z" fill="#3F5A1B"/>
<path fill-rule="evenodd" clip-rule="evenodd" d="M149.129 101.245L149.79 101.854V102.474C149.571 104.911 150.78 108.786 153.431 114.078C156.082 120.396 158.509 129.557 160.722 141.578V141.88C152.326 123.542 148.457 110 149.129 101.245Z" fill="#3F5A1B"/>
<path fill-rule="evenodd" clip-rule="evenodd" d="M152.108 88.099V56.0105L152.436 53.2709L155.42 62.4323L156.405 74.3542C156.623 78.6355 157.842 83.3178 160.05 88.4115C161.592 91.2605 163.806 95.7448 166.67 101.854C168.212 105.724 172.415 114.583 179.253 128.448C184.337 139.443 188.087 148.609 190.514 155.943C193.826 166.531 195.701 172.339 196.144 173.354C197.686 179.667 198.467 185.677 198.467 191.385C198.467 207.682 197.254 224.276 194.821 241.182C191.951 237.318 190.076 230.693 189.191 221.323L189.519 196.578C189.519 191.286 188.754 185.276 187.201 178.547C186.535 171.833 185.545 165.615 184.222 159.911C182.238 152.776 178.264 145.349 172.3 137.609L161.04 118.052C155.967 109.49 152.988 99.5157 152.108 88.099Z" fill="#3F5A1B"/>
<path fill-rule="evenodd" clip-rule="evenodd" d="M172.306 137.609C178.264 145.349 182.243 152.781 184.228 159.911C185.556 165.615 186.545 171.833 187.212 178.547L182.905 162.661C181.139 155.531 177.608 147.177 172.306 137.609Z" fill="#3F5A1B"/>
<path fill-rule="evenodd" clip-rule="evenodd" d="M271.326 127.823L270.988 131.495C268.118 129.854 266.248 126.094 265.358 120.182C264.92 113.661 264.363 109.281 263.701 107.042C259.727 95.0261 257.514 85.6563 257.082 78.9323C259.066 82.3959 262.264 87.3854 266.681 93.9063C270.212 100.016 272.42 105.521 273.306 110.411C274.186 116.109 274.186 123.443 273.306 132.406H272.983L271.326 127.823Z" fill="#3F5A1B"/>
<path fill-rule="evenodd" clip-rule="evenodd" d="M270.988 131.495L271.326 127.823L272.983 132.406L270.988 131.495Z" fill="#3F5A1B"/>
<path fill-rule="evenodd" clip-rule="evenodd" d="M373.988 92.0782C374.425 89.6303 375.42 86.573 376.962 82.9115C378.957 78.2292 380.16 75.1719 380.613 73.7448C383.254 65.3855 384.587 55 384.587 42.5677C386.79 79.0313 384.035 116.521 376.306 155.021L375.644 157.156C370.561 168.771 360.405 185.375 345.17 206.969L361.727 162.964C363.941 157.469 366.144 147.281 368.352 132.417C371.66 122.224 373.535 114.385 373.988 108.885C374.207 107.255 374.207 104.505 373.988 100.63C373.545 96.9688 373.545 94.1094 373.988 92.0782Z" fill="#3F5A1B"/>
<path fill-rule="evenodd" clip-rule="evenodd" d="M358.748 170.302L345.17 206.969L343.842 208.802C344.514 203.302 346.389 196.886 349.483 189.557C353.675 180.995 356.769 174.578 358.748 170.302Z" fill="#3F5A1B"/>
<path fill-rule="evenodd" clip-rule="evenodd" d="M356.102 118.661C355.217 120.286 353.561 123.547 351.139 128.448C348.707 132.516 346.389 135.062 344.181 136.083L343.191 125.688C353.123 100.427 363.722 64.6771 374.983 18.4375C374.983 44.9219 372.774 68.6562 368.358 89.6302C367.024 95.5365 362.946 105.208 356.102 118.661Z" fill="#3F5A1B"/>
<path fill-rule="evenodd" clip-rule="evenodd" d="M435.915 136.688L445.852 128.438C445.634 130.875 444.962 134.443 443.863 139.13C441.212 143.823 438.009 150.641 434.259 159.604C430.285 168.573 426.53 179.974 422.998 193.828L413.066 220.115C410.42 223.776 408.655 225.911 407.764 226.526C405.78 228.568 402.686 231.214 398.493 234.469C396.29 236.917 393.415 241.708 389.884 248.828C386.79 253.521 384.915 256.161 384.253 256.781C382.04 258.812 379.399 258.812 376.306 256.781V254.635L378.29 243.339C379.181 238.849 379.509 235.391 379.285 232.948L378.957 232.641L378.29 227.13C376.967 229.984 375.972 231.411 375.311 231.411C375.311 226.521 378.071 219.901 383.592 211.547C391.54 199.734 395.738 193.312 396.175 192.292C397.717 189.234 406.108 180.068 421.342 164.792C433.259 152.578 438.118 143.208 435.915 136.688Z" fill="#3F5A1B"/>
<path fill-rule="evenodd" clip-rule="evenodd" d="M413.066 220.115L422.998 193.828L420.358 203C418.587 209.307 416.149 215.01 413.066 220.115Z" fill="#3F5A1B"/>
<path fill-rule="evenodd" clip-rule="evenodd" d="M375.306 234.167L378.29 228.662L378.957 233.245L375.306 234.167Z" fill="#3F5A1B"/>
<path fill-rule="evenodd" clip-rule="evenodd" d="M413.727 159.912L393.519 178.859C404.342 160.932 418.139 144.938 434.915 130.885C431.602 139.641 424.545 149.318 413.727 159.912Z" fill="#3F5A1B"/>
<path fill-rule="evenodd" clip-rule="evenodd" d="M362.727 199.328C362.509 193.625 363.712 188.026 366.368 182.516L369.681 179.464C367.915 185.375 365.602 191.995 362.727 199.328Z" fill="#3F5A1B"/>
<path fill-rule="evenodd" clip-rule="evenodd" d="M481.618 234.776C474.993 249.646 467.592 256.672 459.42 255.865L458.097 250.36L460.748 246.698C466.045 238.552 473.66 228.964 483.597 217.974C483.16 219.807 482.821 222.662 482.602 226.531C482.384 230.193 482.061 232.943 481.618 234.776Z" fill="#3F5A1B"/>
<path fill-rule="evenodd" clip-rule="evenodd" d="M512.415 188.328L523.019 183.448V183.75C516.613 192.714 509.66 201.469 502.155 210.026C497.957 214.505 493.873 221.745 489.9 231.719C487.472 237.828 483.941 248.12 479.295 262.578L478.634 252.797L475.655 252.188C474.769 253.005 473.452 254.932 471.681 257.995C470.577 255.547 471.342 252.396 473.998 248.516C477.311 244.24 479.295 241.287 479.962 239.651L481.618 234.771C485.144 226.625 486.915 219.797 486.915 214.297C493.978 206.563 502.478 197.901 512.415 188.328Z" fill="#3F5A1B"/>
<path fill-rule="evenodd" clip-rule="evenodd" d="M475.655 252.193L478.634 252.802L479.295 262.583L478.967 262.896L475.655 261.672C473.67 260.854 472.342 259.63 471.681 258C473.451 254.938 474.769 253.011 475.655 252.193Z" fill="#3F5A1B"/>
<path fill-rule="evenodd" clip-rule="evenodd" d="M486.915 214.302C486.915 219.802 485.144 226.625 481.618 234.776C482.05 232.948 482.384 230.198 482.603 226.526C482.821 222.656 483.16 219.802 483.597 217.964L486.915 214.302Z" fill="#3F5A1B"/>
<path fill-rule="evenodd" clip-rule="evenodd" d="M226.618 399.828L225.623 404.714L227.941 400.432L226.618 399.828ZM503.806 271.792L498.504 282.182C492.321 292.161 483.045 304.479 470.686 319.146C457.004 335.448 435.8 349.505 407.103 361.323C381.493 371.911 360.186 377.203 343.191 377.203C331.712 377.203 311.946 380.87 283.91 388.203C266.915 392.688 250.905 397.37 235.889 402.255L236.884 403.781L234.561 402.865L233.899 403.172L229.592 401.036L225.618 404.698L225.295 404.406L224.962 398.911L223.967 398.604V397.995C205.207 388.625 189.748 380.172 177.608 372.63C160.16 361.833 138.972 353.276 114.024 346.964C88.6286 340.651 68.9775 339.021 55.0765 342.073C43.3734 344.724 31.0036 350.833 17.9827 360.411C11.5817 365.297 6.27962 369.891 2.08691 374.161C-1.22038 357.458 -0.116211 342.073 5.39942 328.021C12.9098 309.479 27.2588 299.906 48.4515 299.297C70.0921 298.688 94.8161 304.599 122.634 317.021C143.827 326.391 164.358 338.302 184.228 352.776C197.259 362.141 210.504 374.167 223.967 388.833C222.202 374.771 219.993 364.792 217.347 358.885C214.472 352.156 204.988 342.682 188.868 330.458C178.712 322.719 162.259 311.318 139.524 296.245C118.988 282.797 102.873 267.932 91.1702 251.63C76.3838 231.469 69.3161 210.182 69.9775 187.766C70.639 167.396 74.7275 141.938 82.2327 111.375L93.1598 71.6563L98.79 107.401C104.092 135.109 110.493 158.844 117.998 178.604C124.399 195.307 140.847 218.63 167.342 248.578C195.16 280.156 212.379 302.656 219.004 316.099C228.936 336.469 232.467 358.984 229.597 383.63L233.905 375.688C238.54 367.125 243.509 351.245 248.806 328.021C254.769 302.755 258.082 280.453 258.743 261.099C259.629 239.703 265.035 212.922 274.967 180.734C285.342 147.125 296.493 121.464 308.415 103.74C318.79 88.4584 324.425 69.9219 325.306 48.1302L323.321 19.7084L332.592 74.7084C337.222 119.526 335.79 162.302 328.285 203.052C321.446 239.109 304.993 278.724 278.941 321.917C263.707 346.969 246.821 370.807 228.28 393.417V393.719L237.222 385.474C245.832 372.432 251.358 364.594 253.78 361.943C257.754 357.458 268.795 349.318 286.899 337.5C308.092 323.646 332.373 309.396 359.754 294.724C384.702 281.281 410.092 254.594 435.92 214.667L467.384 158.75C459.655 211.917 436.811 255.813 398.832 290.448C381.821 305.917 352.795 324.661 311.728 346.656C306.873 348.896 301.243 352.047 294.837 356.125C343.191 338.411 378.618 328.63 401.144 326.797C415.05 325.568 433.821 317.828 457.441 303.573L503.806 271.792Z" fill="#46691D"/>
<path fill-rule="evenodd" clip-rule="evenodd" d="M226.618 399.167L225.623 404.052L227.941 399.771L226.618 399.167ZM444.196 227.13L446.514 226.521C431.28 257.281 408.655 283.86 378.623 306.276C367.144 314.828 344.842 328.068 311.728 345.995C306.873 348.235 301.243 351.38 294.837 355.464C322.655 345.281 347.827 337.333 370.337 331.636C369.675 332.646 369.457 333.469 369.675 334.078H371.009C365.707 336.932 360.853 338.958 356.436 340.188C340.316 343.854 329.175 347.521 322.988 351.182C329.832 352.203 338.769 352 349.811 350.573C355.998 349.766 364.931 348.328 376.639 346.292C389.004 344.662 406.441 340.688 428.962 334.375C417.04 342.729 401.582 349.651 382.597 355.151C371.337 358.214 354.446 361.771 331.931 365.849C339.441 365.849 350.702 365.745 365.717 365.542C378.962 365.344 390.212 364.62 399.493 363.401C376.311 372.162 357.55 376.542 343.196 376.542C331.717 376.542 311.952 380.203 283.915 387.542C266.92 392.026 250.915 396.708 235.899 401.594L236.889 403.115L234.566 402.203L233.905 402.505L229.597 400.375L225.623 404.037L225.295 403.75L224.962 398.255L223.967 397.948V397.339L198.139 383.896C194.827 374.526 190.967 367.797 186.545 363.724C174.623 352.719 158.285 342.745 137.54 333.776C124.514 328.073 111.05 323.083 97.1338 318.802C93.3838 317.573 88.1911 316.458 81.5661 315.438C74.2848 314.214 69.2067 313.193 66.3369 312.386C68.3213 311.776 71.1911 311.573 74.9463 311.776C78.9202 311.776 81.6807 311.573 83.2223 311.156C73.7275 306.063 66.0036 302.709 60.04 301.078C52.9827 300.88 48.3369 300.365 46.1338 299.557L44.4775 298.938L48.4515 298.636C56.8421 298.026 66.7796 298.938 78.2588 301.386L79.2484 301.688C83.4411 303.12 90.7275 305.146 101.108 307.807C129.144 317.375 156.847 332.146 184.228 352.11C197.259 361.479 210.504 373.505 223.967 388.167C222.202 374.11 219.993 364.13 217.347 358.219C214.472 351.495 204.988 342.021 188.868 329.797C178.712 322.057 162.259 310.656 139.524 295.578C118.988 282.136 102.873 267.271 91.1702 250.969C76.3838 230.807 69.3161 209.521 69.9775 187.104V186.495C73.29 197.083 81.238 210.427 93.8213 226.521C102.212 237.318 108.504 245.057 112.707 249.745C120.207 258.099 127.493 264.818 134.561 269.912C136.103 267.87 134.998 263.292 131.248 256.162C127.05 248.625 124.629 243.938 123.962 242.104L117.67 224.995C125.618 238.646 137.431 251.99 153.108 265.021C154.873 266.651 158.629 269.912 164.368 274.802C169.446 279.083 173.415 281.531 176.29 282.136C176.728 277.854 176.728 273.386 176.29 268.693C176.957 271.542 178.832 273.073 181.925 273.271C183.467 273.271 185.009 272.151 186.556 269.912C202.452 288.245 213.274 303.427 219.009 315.438C228.941 335.807 232.472 358.318 229.608 382.969L233.91 375.021C238.545 366.464 243.514 350.583 248.811 327.36C254.774 302.094 258.087 279.792 258.748 260.438C258.967 246.583 262.061 227.953 268.019 204.516C266.915 223.266 267.03 235.583 268.353 241.495C273.649 242.307 282.035 232.735 293.519 212.771C295.946 207.88 300.259 195.969 306.436 177.021C307.097 183.537 306.988 189.443 306.103 194.745C299.702 209 296.285 220.417 295.832 228.964C291.639 239.969 288.988 247.406 287.889 251.276C285.243 259.63 283.691 267.156 283.254 273.886C302.457 247.61 317.035 225.714 326.967 208.188C319.462 243.427 303.019 281.833 277.623 323.38C262.837 347.422 246.389 370.537 228.29 392.745V393.052L237.228 384.802C245.837 371.766 251.363 363.927 253.79 361.276C257.097 357.198 267.144 349.552 283.925 338.354C303.129 325.729 325.431 312.49 350.827 298.636C341.327 309.833 327.759 320.427 310.092 330.412C312.514 331.026 315.498 330.719 319.035 329.49C321.243 328.682 324.228 327.36 327.983 325.521C344.759 319.208 358.118 311.974 368.05 303.823C377.327 296.292 387.259 287.333 397.858 276.938C402.493 272.656 409.009 265.625 417.394 255.854C420.269 254.224 422.696 252.485 424.681 250.656C431.941 244.146 438.457 236.302 444.196 227.13Z" fill="#375316"/>
<path fill-rule="evenodd" clip-rule="evenodd" d="M98.7848 213.688L95.8108 213.995C95.8108 215.625 96.5764 217.964 98.1285 221.026C99.6702 223.672 100.332 225.912 100.113 227.75C94.3785 221.026 89.7431 215.422 86.2067 210.948C79.8004 202.193 78.8056 197.401 83.2223 196.583C80.1285 192.51 78.3681 188.234 77.9254 183.75C77.7067 181.917 77.8108 177.438 78.2587 170.307C78.2587 159.917 78.3681 151.974 78.5869 146.469C79.0244 136.688 80.5764 128.948 83.2223 123.245C83.2223 128.948 84.9931 137.297 88.5244 148.302C92.0556 160.115 94.0452 167.755 94.4827 171.219C94.9202 175.495 96.1389 182.625 98.1285 192.609C99.4514 201.771 99.6702 208.802 98.7848 213.688Z" fill="#4D7224"/>
<path fill-rule="evenodd" clip-rule="evenodd" d="M85.8733 112.24L84.8785 120.188L83.2223 123.245C83.6598 118.354 84.5504 114.693 85.8733 112.24Z" fill="#4D7224"/>
<path fill-rule="evenodd" clip-rule="evenodd" d="M97.4619 166.021C94.5921 160.724 92.7171 154.922 91.8265 148.609C91.389 144.531 91.165 138.12 91.165 129.354C91.165 129.146 91.4984 110.411 92.1546 73.125L92.8265 71.2969L95.8109 103.995C95.8109 110.313 95.2536 120.083 94.1546 133.328C93.7067 145.135 94.4827 154.818 96.4723 162.354L97.4619 166.021Z" fill="#4D7224"/>
<path fill-rule="evenodd" clip-rule="evenodd" d="M116.998 201.469C115.899 199.229 114.243 197.083 112.03 195.047C108.941 192.406 106.842 190.266 105.743 188.636C103.311 184.969 100.55 177.438 97.4619 166.021L99.1182 168.771C101.764 172.844 106.405 178.958 113.03 187.104C129.587 210.328 141.613 226.016 149.129 234.167C152.217 237.625 156.738 242.719 162.701 249.443C168.004 255.354 172.201 260.641 175.29 265.328C169.103 265.745 162.478 262.688 155.42 256.162C147.91 248.219 142.285 242.917 138.524 240.276C132.566 235.995 128.04 229.985 124.946 222.245C121.858 213.078 119.207 206.151 116.998 201.469Z" fill="#4D7224"/>
<path fill-rule="evenodd" clip-rule="evenodd" d="M317.691 107.052C317.91 112.958 316.8 119.781 314.379 127.526C311.285 138.724 309.524 145.349 309.071 147.391C308.634 149.63 308.41 154.214 308.41 161.135C308.41 166.641 307.748 171.115 306.425 174.578C304.655 178.859 299.582 187.823 291.191 201.469C290.082 203.302 288.54 207.271 286.55 213.38C284.342 218.885 281.806 221.833 278.936 222.245C276.514 217.563 276.514 210.021 278.936 199.63C280.477 192.297 282.915 184.766 286.227 177.021C291.311 167.24 295.056 159.807 297.483 154.719C301.899 145.75 304.878 138.115 306.431 131.797C307.753 125.073 308.852 119.885 309.743 116.214C311.509 109.693 313.821 105.313 316.696 103.073L317.691 107.052Z" fill="#4D7224"/>
<path fill-rule="evenodd" clip-rule="evenodd" d="M315.373 171.526C322.212 155.63 326.3 143.208 327.629 134.245C328.514 128.547 329.061 117.948 329.285 102.474C329.504 88.823 330.498 78.2292 332.259 70.6927C336.681 114.078 335.795 155.234 329.618 194.141C322.326 204.323 311.623 219.906 297.488 240.885C296.17 237.021 295.613 233.042 295.832 228.964C301.576 214.104 304.998 202.693 306.103 194.745C311.399 182.318 314.488 174.578 315.373 171.526Z" fill="#4D7224"/>
<path fill-rule="evenodd" clip-rule="evenodd" d="M295.826 228.964C296.269 220.417 299.691 209 306.097 194.745C304.993 202.688 301.576 214.099 295.826 228.964Z" fill="#4D7224"/>
<path fill-rule="evenodd" clip-rule="evenodd" d="M456.118 179.464C458.764 193.313 454.79 209.208 444.196 227.13C441.988 227.745 439.774 228.865 437.571 230.495C435.144 232.333 432.274 235.797 428.962 240.88C424.978 246.995 422.451 250.667 421.342 251.875L417.368 255.859C410.076 260.74 405.222 264.412 402.8 266.849C400.592 269.302 397.613 272.359 393.858 276.021C390.983 278.875 387.67 281.115 383.92 282.755C379.941 284.583 374.972 286.417 369.019 288.245C398.597 268.281 427.634 232.026 456.118 179.464Z" fill="#4D7224"/>
<path fill-rule="evenodd" clip-rule="evenodd" d="M428.962 240.88C432.274 235.792 435.144 232.333 437.571 230.495C439.774 228.865 441.988 227.745 444.196 227.13C438.457 236.302 431.941 244.136 424.655 250.667C422.67 252.495 420.243 254.229 417.368 255.86L421.342 251.875C422.451 250.667 424.978 246.995 428.962 240.88Z" fill="#4D7224"/>
<path fill-rule="evenodd" clip-rule="evenodd" d="M408.759 335.005C402.353 335.615 389.769 335.307 371.009 334.083L377.962 329.802C388.332 327.568 396.061 326.344 401.144 326.141C413.504 324.912 429.842 318.5 450.155 306.891C462.733 299.969 474.769 292.219 486.243 283.667C482.498 290.188 479.405 294.667 476.978 297.109C472.561 301.797 461.3 310.662 443.196 323.693C433.925 330.214 422.451 333.979 408.759 335.005Z" fill="#4D7224"/>
<path fill-rule="evenodd" clip-rule="evenodd" d="M369.681 334.083C369.462 333.474 369.681 332.651 370.342 331.646L377.962 329.802L371.009 334.083H369.681Z" fill="#4D7224"/>
<path fill-rule="evenodd" clip-rule="evenodd" d="M410.415 353.938C405.78 354.557 401.691 354.958 398.155 355.167C391.535 355.979 387.003 356.089 384.576 355.469C388.326 353.24 394.399 351.396 402.79 349.979C411.623 348.344 417.915 346.51 421.67 344.479C426.524 342.026 432.597 338.167 439.884 332.865C450.04 325.536 455.889 321.354 457.436 320.333C468.259 313.812 476.535 308.313 482.269 303.828L470.681 318.5C460.311 330.318 445.405 341.318 425.972 351.5L410.415 353.938Z" fill="#4D7224"/>
<path fill-rule="evenodd" clip-rule="evenodd" d="M31.8942 301.385L29.5765 304.438C31.5609 304.438 35.6442 303.729 41.8265 302.297C41.389 303.526 40.0609 305.969 37.8525 309.635C36.3109 312.49 35.3109 314.932 34.8734 316.964C36.863 316.964 40.8265 316.458 46.7953 315.438C51.4307 314.828 55.2953 314.63 58.389 314.828C57.2796 317.266 54.9619 319.922 51.4307 322.771C47.2328 326.026 44.5921 328.469 43.4828 330.099C45.2536 330.307 47.9046 330.208 51.4307 329.792C54.9619 329.589 57.6182 329.484 59.3786 329.484L58.7171 332.255C60.2588 332.865 63.8005 333.177 69.3213 333.177L68.3265 335.307C70.3161 335.917 74.29 336.734 80.2484 337.755C84.889 338.365 88.6442 339.688 91.5088 341.724C76.2744 339.484 64.1286 339.385 55.0817 341.417C43.3786 344.068 31.014 350.177 17.9932 359.755C11.5869 364.641 6.29004 369.234 2.09734 373.505C-0.996414 359.651 -0.668289 346.313 3.08692 333.479C7.71192 316.969 17.3213 306.281 31.8942 301.385Z" fill="#4D7224"/>
<path fill-rule="evenodd" clip-rule="evenodd" d="M142.832 279.13C154.535 284.224 168.004 292.573 183.238 304.182C187.217 307.037 191.738 311.318 196.821 317.021C202.556 323.745 206.754 328.224 209.399 330.458V316.708C217.347 318.141 222.316 325.682 224.3 339.323C224.738 342.583 224.967 352.266 224.967 368.349C224.967 375.281 224.415 379.255 223.316 380.271C221.545 381.703 217.79 379.662 212.056 374.162C211.837 373.959 207.306 370.292 198.478 363.162C192.733 358.479 188.759 354.406 186.545 350.938C185.227 348.896 184.009 345.438 182.905 340.547C181.806 335.667 180.368 332.099 178.608 329.854L159.722 312.438C164.139 314.266 168.222 315.698 171.983 316.708C174.405 317.125 178.384 317.938 183.905 319.156C183.686 316.511 181.254 313.656 176.613 310.599C171.097 307.547 167.451 305.307 165.691 303.875C163.04 301.63 159.285 297.464 154.431 291.349C149.79 285.646 145.925 281.573 142.832 279.13Z" fill="#304615"/>
<path fill-rule="evenodd" clip-rule="evenodd" d="M162.04 343.901L160.873 341.464C161.769 342.12 162.816 342.828 164.03 343.599C165.431 344.573 167.087 345.646 168.998 346.813C166.352 345.266 164.035 344.302 162.04 343.901ZM160.873 341.464C157.957 339.198 156.571 337.365 156.738 335.964C157.405 335.761 158.061 336.073 158.727 336.886L160.873 341.464ZM195.988 365.755C196.337 365.995 196.712 366.245 197.144 366.516C202.66 369.974 206.748 373.136 209.399 375.99C222.207 387.802 228.832 395.448 229.269 398.912C222.863 396.266 217.894 394.021 214.368 392.182C207.524 389.13 203.769 385.969 203.108 382.714C203.993 382.917 205.316 382.818 207.087 382.406C207.967 378.735 206.201 374.766 201.79 370.49C200.769 369.557 198.832 367.974 195.988 365.755Z" fill="#304615"/>
<path fill-rule="evenodd" clip-rule="evenodd" d="M277.951 286.766C275.738 294.912 274.639 300.625 274.639 303.875C279.05 300.625 283.467 294.615 287.884 285.849C287.66 292.776 285.123 300.099 280.269 307.849C277.618 312.323 273.311 319.047 267.353 328.016C257.853 344.719 252.118 354.391 250.134 357.042C248.587 359.485 245.603 362.958 241.186 367.432C236.993 371.708 234.123 374.964 232.571 377.208C232.373 374.542 232.483 372.193 232.905 370.182C236.53 367.12 239.728 362.432 242.509 356.12C245.384 348.38 247.587 342.781 249.134 339.318C252.441 332.599 254.769 327.511 256.087 324.037C257.769 319.943 258.764 316.073 259.066 312.427V319.146C262.597 313.042 266.248 304.896 269.993 294.714C275.514 280.24 278.821 271.792 279.931 269.349C280.373 273.432 279.717 279.235 277.951 286.766Z" fill="#304615"/>
<path fill-rule="evenodd" clip-rule="evenodd" d="M293.514 338.714H301.462C304.774 338.714 307.311 339.021 309.071 339.63C307.087 343.505 299.248 348.083 285.561 353.375L269.003 359.188C265.472 360.615 256.311 365.708 241.519 374.469H240.53C242.071 373.036 245.384 370.599 250.462 367.13C254.66 364.276 257.634 361.745 259.405 359.5C262.498 354.203 265.259 350.328 267.681 347.891C270.993 344.839 275.3 341.776 280.597 338.719C286.561 335.458 291.42 333.625 295.17 333.219C294.951 333.625 294.399 335.453 293.514 338.714Z" fill="#304615"/>
<path fill-rule="evenodd" clip-rule="evenodd" d="M321.993 362.547C317.8 365.807 311.946 368.859 304.451 371.719C295.832 374.359 289.436 376.406 285.243 377.828C281.269 379.255 276.3 381.495 270.337 384.557C263.056 388.422 258.311 390.87 256.097 391.885C238.66 399.63 226.181 404.005 218.686 405.016C223.097 402.984 227.399 400.333 231.597 397.078L229.269 397.995C230.592 396.771 232.248 394.828 234.238 392.182C236.222 389.13 237.878 386.99 239.201 385.771C241.415 383.526 244.837 381.188 249.467 378.734C256.092 375.068 259.743 372.927 260.399 372.318C273.207 363.151 283.691 358.266 291.858 357.651L276.623 368.339C281.259 368.542 288.764 367.531 299.139 365.281C308.852 363.057 316.477 362.135 321.993 362.547Z" fill="#304615"/>
</svg>
